<svg xmlns="http://www.w3.org/2000/svg" width="37.18" height="42" viewBox="0 0 37.18 42"><defs><style>.a{fill:#5c5a54;}.b{fill:#a19c23;}.c{fill:#ebe1bd;}.d{fill:none;}.e{fill:#fff;}</style></defs><g transform="translate(11949.862 9977)"><rect class="a" width="4.936" height="10.152" rx="2.468" transform="translate(-11944.319 -9945.152)"/><rect class="a" width="4.936" height="10.152" rx="2.468" transform="translate(-11923.162 -9945.152)"/><path class="b" d="M503.416,170.784H518.89a2.765,2.765,0,0,1,.677.088c-.057-5.211-.255-9.916-.675-13.93C513.855,158.97,506.239,165.058,503.416,170.784Z" transform="translate(-12434.354 -10117.064)"/><path class="b" d="M438.275,156.942c-.419,4.013-.618,8.719-.674,13.93a2.765,2.765,0,0,1,.677-.088h15.474C450.929,165.058,443.313,158.97,438.275,156.942Z" transform="translate(-12385.358 -10117.064)"/><path class="c" d="M471.7,111.2l.056-.024c-.765-8.313-2.33-12.521-5.267-13.955q-.459-.224-.981-.417a35.981,35.981,0,0,0-19.24,0q-.521.193-.981.417c-2.937,1.434-4.5,5.642-5.267,13.955l.056.024c5.038,2.028,12.654,8.116,15.476,13.842h.671C459.047,119.314,466.663,113.226,471.7,111.2Z" transform="translate(-12387.161 -10071.321)"/><rect class="b" width="34.838" height="3.22" rx="1.61" transform="translate(-11948.691 -9945.11)"/><path class="a" d="M465.632,122.352l-.01-.008c-.17-18.778-2.1-27.418-6.548-29.588-3.125-1.525-7.769-1.846-11.115-1.846s-7.99.32-11.115,1.846c-4.444,2.17-6.378,10.81-6.548,29.588l-.009.008a2.777,2.777,0,0,0,1.863,4.84h31.618a2.777,2.777,0,0,0,1.863-4.84Zm-33.54-14.588c.765-8.313,2.33-12.521,5.267-13.955q.459-.224.981-.417a35.981,35.981,0,0,1,19.24,0q.521.193.981.417c2.937,1.434,4.5,5.642,5.267,13.955l-.056.024c.42,4.014.618,8.719.675,13.93a2.769,2.769,0,0,0-.677-.088H432.15a2.767,2.767,0,0,0-.677.088c.057-5.211.255-9.916.674-13.93Zm33.287,16.647a1.615,1.615,0,0,1-1.61,1.61H432.15a1.615,1.615,0,0,1-1.61-1.61h0a1.615,1.615,0,0,1,1.61-1.61h31.618a1.615,1.615,0,0,1,1.61,1.61Z" transform="translate(-12379.231 -10067.911)"/><path class="a" d="M471.849,149.324c-5.465,2.155-12.805,7.668-15.671,12.837-2.865-5.169-10.205-10.682-15.671-12.837q-.051.449-.1.908c5.553,2.269,13.04,8.1,15.37,13.078l.4.85.4-.85c2.331-4.979,9.818-10.809,15.371-13.078Q471.9,149.772,471.849,149.324Z" transform="translate(-12387.45 -10111.395)"/><circle class="b" cx="2.293" cy="2.293" r="2.293" transform="translate(-11933.566 -9956.944)"/><rect class="d" height="0.511" transform="translate(-11928.365 -9974.139)"/><path class="e" d="M463.69,106.111l-.087,0a20.913,20.913,0,0,0-5.77,1.026c-1.592.61-2.618,2.151-3.325,5-.008.041-.015.083-.023.125l-.006.031c-.007.041-.012.072-.016.1l0,.025,0,.015-.011.074c0,.034-.009.069-.012.1s-.008.067-.011.1-.006.064-.008.1,0,.075-.007.113v.018c0,.021,0,.043,0,.064,0,.046,0,.093,0,.139v.056c0,.059,0,.12.009.181v.01c.006.065.013.126.022.187l.007.038c.008.048.017.1.028.145l.006.023,0,.019c.011.045.024.091.038.138l.011.037c.016.048.034.1.054.146l.011.027a2.021,2.021,0,0,0,.285.475v0l.017.02c.038.046.08.093.126.14l.016.016c.052.052.1.1.152.142l.018.015c.068.057.131.106.2.151,1.055.748,2.911,1.128,5.517,1.128h1.641c1.57,0,1.994-.279,2.1-.4a2.414,2.414,0,0,0,.191-1.288v-4.217a10.922,10.922,0,0,0-.412-3.745C464.279,106.2,464.131,106.111,463.69,106.111Z" transform="translate(-12397.867 -10079.225)"/><path class="a" d="M460.712,102.111l-.139,0a21.834,21.834,0,0,0-6.083,1.092c-1.914.733-3.164,2.519-3.957,5.729-.011.055-.021.111-.031.168,0,.016-.006.033-.009.049-.008.045-.014.09-.021.135s-.011.07-.015.1-.01.082-.015.124-.009.082-.013.123-.007.077-.01.116-.006.093-.008.14,0,.068,0,.1c0,.059,0,.118,0,.177,0,.023,0,.046,0,.069,0,.085.006.17.014.256v0q.011.125.03.249c0,.017.006.034.009.051q.017.1.039.2c0,.019.009.039.014.058q.025.1.055.2l.017.053q.036.109.08.216l.012.03a3.074,3.074,0,0,0,.44.732l.017.02q.085.1.183.2l.032.033q.1.1.2.188l.035.03c.079.066.163.131.252.195,1.1.783,2.985,1.316,6.108,1.316h1.641c3.2,0,3.317-1.048,3.317-2.709v-4.217C462.9,103.275,462.309,102.111,460.712,102.111Zm1.168,9.461a2.414,2.414,0,0,1-.191,1.288c-.11.12-.534.4-2.1.4h-1.641c-2.605,0-4.461-.38-5.517-1.128-.064-.045-.127-.094-.2-.151l-.018-.015c-.051-.044-.1-.089-.152-.142l-.016-.016c-.046-.047-.088-.094-.125-.14l-.017-.02v0a2.022,2.022,0,0,1-.286-.475l-.011-.027c-.02-.048-.038-.1-.054-.146l-.012-.037c-.014-.046-.027-.092-.038-.137l0-.019-.006-.023c-.011-.048-.02-.1-.028-.145l-.007-.038c-.009-.061-.017-.122-.022-.187v-.01c0-.061-.008-.123-.009-.181v-.056c0-.047,0-.093,0-.139,0-.021,0-.043,0-.064v-.018c0-.038,0-.076.007-.113s.005-.063.008-.1.007-.068.011-.1.008-.07.013-.1l.011-.074,0-.015,0-.025c0-.03.009-.061.016-.1l.006-.031c.007-.042.015-.084.023-.125.707-2.844,1.733-4.386,3.325-5a20.912,20.912,0,0,1,5.77-1.026l.087,0c.441,0,.59.094.756.477a10.921,10.921,0,0,1,.412,3.745Z" transform="translate(-12394.89 -10076.248)"/><path class="e" d="M510.072,104.622c-.441,0-.589.094-.756.477a10.92,10.92,0,0,0-.412,3.745v4.217a2.413,2.413,0,0,0,.191,1.288c.109.12.534.4,2.1.4h1.641c2.606,0,4.462-.38,5.517-1.128.064-.045.127-.094.187-.145l.025-.022c.052-.044.1-.089.145-.134l.023-.023c.046-.047.088-.095.127-.141l.007-.009.01-.012a2.037,2.037,0,0,0,.286-.476l.01-.026c.02-.049.038-.1.054-.147l.01-.032c.016-.05.028-.1.04-.142l0-.018,0-.022c.011-.049.02-.1.029-.147l.006-.036c.01-.062.017-.123.022-.184l0-.018h0c0-.063.007-.121.009-.179v-.053c0-.047,0-.094,0-.14,0-.021,0-.042,0-.064v-.018c0-.038,0-.076-.007-.114s0-.063-.008-.095-.007-.068-.011-.1-.008-.07-.012-.1l-.011-.074,0-.015,0-.025c0-.03-.009-.061-.014-.091l-.008-.043c-.007-.042-.015-.083-.023-.124-.706-2.844-1.733-4.386-3.325-5a20.907,20.907,0,0,0-5.769-1.026l-.087,0v-.511h0Z" transform="translate(-12438.438 -10077.735)"/><path class="a" d="M517.4,110c0-.034,0-.068,0-.1s0-.094-.008-.14-.006-.077-.01-.116-.008-.082-.013-.123-.01-.083-.015-.124-.01-.07-.015-.1-.014-.091-.021-.135c0-.017-.006-.033-.009-.049-.01-.056-.02-.112-.031-.168-.793-3.21-2.044-5-3.958-5.729a21.829,21.829,0,0,0-6.083-1.092l-.139,0v1.022l.087,0a20.908,20.908,0,0,1,5.769,1.026c1.592.61,2.619,2.151,3.325,5,.008.041.016.083.023.124l.008.043c.005.03.01.061.014.091l0,.025,0,.015.011.074c0,.035.008.069.012.1s.007.067.011.1.006.063.008.095,0,.075.007.114v.018c0,.021,0,.043,0,.064,0,.046,0,.093,0,.14v.053c0,.058,0,.117-.009.179h0l0,.018c-.005.061-.013.122-.022.184l-.006.036c-.008.049-.017.1-.028.147l-.005.022,0,.018c-.012.046-.024.093-.04.142l-.01.032c-.016.049-.034.1-.054.147l-.01.026a2.042,2.042,0,0,1-.286.476l-.01.012-.007.009c-.039.047-.081.094-.127.141l-.023.023c-.045.045-.094.09-.145.134l-.025.022c-.06.051-.123.1-.187.145-1.055.748-2.911,1.128-5.517,1.128h-1.641c-1.57,0-1.994-.279-2.1-.4a2.413,2.413,0,0,1-.191-1.288v-4.217a10.921,10.921,0,0,1,.412-3.745c.167-.383.315-.477.756-.477v-1.022h0c-1.6,0-2.19,1.164-2.19,5.244v4.217c0,1.661.116,2.709,3.317,2.709h1.641c3.122,0,5-.533,6.108-1.316.089-.063.173-.128.252-.195l.035-.03q.107-.092.2-.188l.033-.033q.1-.1.183-.2l.017-.02a3.064,3.064,0,0,0,.44-.732l.012-.03q.044-.107.08-.216l.017-.053q.031-.1.055-.2c0-.019.01-.039.014-.058.015-.068.028-.136.04-.2,0-.017.006-.034.009-.051q.019-.124.03-.249v0c.007-.085.011-.17.013-.256,0-.023,0-.046,0-.069C517.4,110.115,517.4,110.056,517.4,110Z" transform="translate(-12435.461 -10076.248)"/><path class="a" d="M513.474,102.111Z" transform="translate(-12441.84 -10076.248)"/><circle class="e" cx="2.293" cy="2.293" r="2.293" transform="translate(-11943.889 -9953.821)"/><circle class="e" cx="1.125" cy="1.125" r="1.125" transform="translate(-11945.552 -9955.484)"/><circle class="e" cx="2.293" cy="2.293" r="2.293" transform="translate(-11923.242 -9953.821)"/><circle class="e" cx="1.125" cy="1.125" r="1.125" transform="translate(-11919.245 -9955.484)"/></g></svg>